# xmcd
#
# Track frame offsets: 
#        150
#        16762
#        30712
#        48900
#        70612
#        102262
#        113175
#        136725
#        155962
#        171600
#        190275
#        206737
#        229200
#
# Disc length: 3449 seconds
#
# Revision: 1
# Processed by: cddbd v1.5.2PL0 Copyright (c) Steve Scherf et al.
# Submitted via: ExactAudioCopy v0.95a4
#
DISCID=b40d770d
DTITLE=Various Artist - The Story of Tone Cool [CD2]
DYEAR=2003
DGENRE=Blues
TTITLE0=11th Hour Band - UFO Alert
TTITLE1=Paul Richell - Blues On A Holiday
TTITLE2=George "Earring"Mayweather/ Cheatin' On Me
TTITLE3=James Montgomery - Yonder's Wall
TTITLE4=Tony Z - Get Down With The Blues
TTITLE5="Monster" Mike Welch/ Freezer Burn
TTITLE6=Johnny Hoy and The Bluefish - Honkeytonk Forgiveness
TTITLE7=Toni Lynn Washington - Good Things Come To Those Who Wait
TTITLE8=The Love Dogs - Big and Hot
TTITLE9=Mark Hummel/ Rockin' At The Riverside
TTITLE10=Terance Simien/ All Her Lovin'
TTITLE11=David Maxwell - Breakdown At The Bayou
TTITLE12=Rod Piazza And The Mighty Flyers - Tough And Tender
EXTD=
EXTT0=
EXTT1=
EXTT2=
EXTT3=
EXTT4=
EXTT5=
EXTT6=
EXTT7=
EXTT8=
EXTT9=
EXTT10=
EXTT11=
EXTT12=
PLAYORDER=
